<?xml version="1.0" standalone="no"?>
<!DOCTYPE svg PUBLIC "-//W3C//DTD SVG 20010904//EN"
 "http://www.w3.org/TR/2001/REC-SVG-20010904/DTD/svg10.dtd">
<svg version="1.0" xmlns="http://www.w3.org/2000/svg"
 width="499.000000pt" height="499.000000pt" viewBox="0 0 499.000000 499.000000"
 preserveAspectRatio="xMidYMid meet">
<metadata>
Created by potrace 1.14, written by Peter Selinger 2001-2017
</metadata>
<g transform="translate(0.000000,499.000000) scale(0.100000,-0.100000)"
fill="#000000" stroke="none">
<path d="M2338 4985 c-2 -2 -41 -6 -88 -9 -47 -4 -94 -9 -105 -12 -11 -2 -33
-6 -49 -9 -16 -2 -52 -9 -80 -14 -28 -6 -63 -13 -78 -15 -15 -3 -31 -7 -36
-10 -5 -3 -19 -7 -33 -9 -18 -4 -103 -28 -149 -43 -3 0 -20 -5 -38 -9 -18 -4
-35 -12 -38 -16 -3 -5 -11 -9 -18 -9 -8 0 -31 -8 -52 -17 -22 -9 -41 -17 -44
-18 -16 -3 -125 -55 -190 -88 -380 -199 -707 -496 -944 -860 -175 -268 -317
-631 -361 -922 -3 -16 -7 -41 -10 -55 -25 -126 -26 -656 -1 -730 3 -8 7 -31
10 -50 35 -244 125 -512 253 -758 54 -104 207 -338 263 -402 16 -19 47 -55 67
-79 45 -52 151 -159 219 -221 40 -37 120 -99 269 -208 133 -97 374 -216 575
-285 113 -39 325 -93 398 -102 24 -3 47 -7 51 -9 29 -18 464 -27 607 -13 366
35 740 159 1044 345 82 50 233 156 265 185 11 10 40 34 65 53 74 56 261 251
345 359 81 103 185 258 185 274 0 5 4 11 9 13 19 7 210 418 194 418 -3 0 -1 6
4 13 8 10 18 38 28 77 0 3 10 37 22 75 12 39 24 87 27 109 4 21 8 42 11 46 3
4 7 25 10 46 3 22 10 59 15 84 29 147 32 578 5 718 -3 19 -8 47 -21 127 -30
190 -133 485 -242 695 -46 87 -212 344 -254 392 -13 14 -39 46 -58 70 -91 112
-268 276 -410 379 -30 22 -63 47 -73 55 -9 7 -19 14 -20 14 -2 0 -51 28 -109
63 -132 78 -172 100 -178 102 -3 0 -30 12 -60 27 -92 45 -293 121 -380 144
-46 12 -189 45 -215 49 -16 3 -53 9 -82 14 -84 15 -197 23 -365 26 -87 1 -159
1 -160 0z"/>
</g>
</svg>
